<svg width="167" height="55" viewBox="0 0 167 55" fill="none" xmlns="http://www.w3.org/2000/svg">
<g clip-path="url(#clip0_1_56)">
<path d="M44.2474 15.2715L33.5395 4.89138L10.7538 22.5735L12.1271 24.341L33.374 7.85011L44.0855 18.2303L62.9133 3.61583L61.5401 1.85184L44.2474 15.2715Z" fill="white"/>
<path d="M51.818 39.4298L51.0328 30.1495L49.3602 36.3551L49.6384 39.6477L7.02831 38.5794L4.2043 5.16548L26.6273 8.05042L30.1379 5.32361L2.66202 1.08932C1.05635 1.09284 -0.130294 2.46327 0.0105541 4.15347L3.00005 39.5212C3.14442 41.2114 4.55995 42.5783 6.16913 42.5783L25.916 42.5396V45.0978C19.3983 45.3789 15.2221 47.4943 16.4264 50.0524C17.7222 52.7968 24.7188 55.0105 32.0535 55.0035C39.3917 54.993 44.2897 52.7616 42.9939 50.0173C42.0185 47.9546 37.8177 46.1871 32.6697 45.4456L32.0922 42.5326L49.163 42.501C50.7687 42.501 51.9588 41.1235 51.8145 39.4333L51.818 39.4298Z" fill="white"/>
<path d="M37.6909 6.49023L41.2403 9.93037L47.1911 10.6964L47.1982 10.7737L48.9412 9.42436C48.3707 8.46155 47.3496 7.80444 46.2369 7.80796" fill="white"/>
<path d="M45.1559 19.6042L45.0221 19.7061L40.272 37.325L47.6876 37.3285L54.4026 12.4253L45.1559 19.6042Z" fill="#A4A316"/>
<path d="M36.9585 13.7465L30.5992 37.3249H38.0149L42.8389 19.4461L36.9585 13.7465Z" fill="#C0AA1A"/>
<path d="M33.2472 10.1517L26.7999 15.1556L20.8244 37.3214L28.2401 37.3249L35.0853 11.9333L33.2472 10.1517Z" fill="#FFAB22"/>
<path d="M14.4369 24.7521L11.046 37.3214H18.4652L23.8597 17.4396L14.4369 24.7521Z" fill="#FF4A22"/>
<path d="M33.4831 4.85626C32.6486 4.85626 31.969 5.53445 31.969 6.36725C31.969 7.20005 32.6486 7.87824 33.4831 7.87824C34.3176 7.87824 34.9972 7.20005 34.9972 6.36725C34.9972 5.53445 34.3176 4.85626 33.4831 4.85626Z" fill="#FFAB22"/>
<path d="M33.4831 3.61584C31.9584 3.61584 30.726 4.84923 30.726 6.36725C30.726 7.88527 31.962 9.12217 33.4831 9.12217C35.0043 9.12217 36.2437 7.88878 36.2437 6.36725C36.2437 4.84572 35.0078 3.61584 33.4831 3.61584ZM33.4831 7.87824C32.6486 7.87824 31.969 7.20005 31.969 6.36725C31.969 5.53445 32.6486 4.85626 33.4831 4.85626C34.3176 4.85626 34.9972 5.53445 34.9972 6.36725C34.9972 7.20005 34.3176 7.87824 33.4831 7.87824Z" fill="white"/>
<path d="M44.1418 15.0009C43.3073 15.0009 42.6277 15.6791 42.6277 16.5119C42.6277 17.3447 43.3073 18.0229 44.1418 18.0229C44.9763 18.0229 45.6559 17.3447 45.6559 16.5119C45.6559 15.6791 44.9763 15.0009 44.1418 15.0009Z" fill="#FFAB22"/>
<path d="M44.1418 13.7605C42.6171 13.7605 41.3812 14.9939 41.3812 16.5154C41.3812 18.037 42.6171 19.2704 44.1418 19.2704C45.6665 19.2704 46.9024 18.037 46.9024 16.5154C46.9024 14.9939 45.6665 13.7605 44.1418 13.7605ZM44.1418 18.0229C43.3073 18.0229 42.6277 17.3447 42.6277 16.5119C42.6277 15.6791 43.3073 15.0009 44.1418 15.0009C44.9763 15.0009 45.6559 15.6791 45.6559 16.5119C45.6559 17.3447 44.9763 18.0229 44.1418 18.0229Z" fill="white"/>
<path d="M11.3806 22.0288C10.546 22.0288 9.86646 22.707 9.86646 23.5398C9.86646 24.3726 10.546 25.0508 11.3806 25.0508C12.2151 25.0508 12.8947 24.3726 12.8947 23.5398C12.8947 22.707 12.2151 22.0288 11.3806 22.0288Z" fill="#FFAB22"/>
<path d="M11.3806 20.7884C9.85588 20.7884 8.61993 22.0218 8.61993 23.5433C8.61993 25.0648 9.85588 26.2982 11.3806 26.2982C12.9052 26.2982 14.1412 25.0648 14.1412 23.5433C14.1412 22.0218 12.9052 20.7884 11.3806 20.7884ZM11.3806 25.0508C10.546 25.0508 9.86644 24.3726 9.86644 23.5398C9.86644 22.707 10.546 22.0288 11.3806 22.0288C12.2151 22.0288 12.8947 22.707 12.8947 23.5398C12.8947 24.3726 12.2151 25.0508 11.3806 25.0508Z" fill="white"/>
<path d="M62.1739 1.24393C61.3394 1.24393 60.6598 1.92212 60.6598 2.75492C60.6598 3.58772 61.3394 4.2659 62.1739 4.2659C63.0084 4.2659 63.688 3.58772 63.688 2.75492C63.688 1.92212 63.0084 1.24393 62.1739 1.24393Z" fill="#FFAB22"/>
<path d="M62.1739 0C60.6492 0 59.4133 1.23339 59.4133 2.75492C59.4133 4.27645 60.6492 5.50984 62.1739 5.50984C63.6986 5.50984 64.9345 4.27645 64.9345 2.75492C64.9345 1.23339 63.6986 0 62.1739 0ZM62.1739 4.26591C61.3394 4.26591 60.6598 3.58772 60.6598 2.75492C60.6598 1.92212 61.3394 1.24393 62.1739 1.24393C63.0084 1.24393 63.688 1.92212 63.688 2.75492C63.688 3.58772 63.0084 4.26591 62.1739 4.26591Z" fill="white"/>
<path d="M131.108 30.023C130.837 29.6786 130.598 29.3097 130.394 28.9091H124.802C124.235 28.9091 123.753 28.8669 123.358 28.7861C122.971 28.7053 122.65 28.5577 122.404 28.3363C122.165 28.122 121.985 27.8268 121.872 27.4578C121.767 27.0889 121.71 26.6145 121.71 26.0312V18.0265H117.925V27.4227C117.925 28.2169 118.038 28.9056 118.26 29.4854C118.474 30.0581 118.833 30.536 119.326 30.912C119.812 31.288 120.443 31.5691 121.221 31.7483C121.992 31.9276 122.929 32.0189 124.034 32.0189H133.461C133.281 31.9205 133.108 31.8151 132.943 31.7062C132.235 31.2388 131.619 30.6731 131.112 30.0265L131.108 30.023Z" fill="white"/>
<path d="M166.334 21.8426C165.898 20.9255 165.26 20.1559 164.437 19.5339C163.616 18.919 162.616 18.4516 161.447 18.1354C160.271 17.8156 158.958 17.661 157.489 17.661C156.021 17.661 154.707 17.8156 153.524 18.1354C152.348 18.4481 151.341 18.9155 150.51 19.5339C149.919 19.9837 149.419 20.5003 149.024 21.1047C148.862 21.3401 148.721 21.5861 148.591 21.8426C148.257 22.5243 148.049 23.2763 147.968 24.1056H140.094V27.1767H144.345V28.8634C144.084 28.9442 143.834 29.011 143.591 29.0778C143.352 29.1445 143.091 29.2078 142.813 29.2499C142.542 29.2991 142.232 29.3378 141.901 29.3659C141.566 29.3905 141.179 29.4046 140.728 29.4046C139.834 29.4046 139.07 29.3378 138.422 29.1937C138.33 29.1762 138.242 29.1551 138.158 29.1305C137.88 29.0637 137.626 28.9899 137.387 28.9021C137.165 28.8212 136.954 28.7299 136.763 28.6385C136.302 28.4031 135.932 28.1395 135.647 27.8444C135.358 27.5422 135.137 27.2365 134.975 26.9097C134.813 26.5829 134.711 26.2561 134.647 25.9328C134.591 25.606 134.559 25.3038 134.559 25.0227C134.559 24.71 134.598 24.3761 134.665 24.0388C134.732 23.7015 134.855 23.3676 135.027 23.0408C135.207 22.714 135.446 22.4083 135.756 22.1167C136.066 21.8285 136.454 21.5755 136.929 21.3612C137.404 21.1398 137.978 20.9676 138.644 20.8376C139.309 20.7076 140.094 20.6478 140.992 20.6478C141.714 20.6478 142.397 20.69 143.052 20.7884C143.707 20.8798 144.323 21.0098 144.89 21.1644C145.464 21.319 145.992 21.5017 146.482 21.7055C146.968 21.9094 147.401 22.1167 147.788 22.3345V18.912C146.802 18.55 145.721 18.2478 144.538 18.0124C143.362 17.777 142.084 17.661 140.711 17.661C139.816 17.661 138.954 17.7243 138.108 17.8402C137.27 17.9632 136.482 18.153 135.742 18.406C135.01 18.666 134.33 18.9858 133.714 19.3793C133.098 19.7729 132.573 20.2473 132.137 20.7884C131.693 21.3296 131.355 21.9585 131.108 22.6578C130.862 23.3641 130.746 24.1547 130.746 25.0192C130.746 25.8836 130.862 26.6883 131.098 27.3876C131.284 27.9428 131.524 28.4453 131.83 28.9021C131.904 29.0251 131.992 29.141 132.084 29.2605C132.51 29.8016 133.027 30.269 133.626 30.6625C134.232 31.0561 134.897 31.3829 135.63 31.6359C136.056 31.7905 136.499 31.9135 136.968 32.0119C137.302 32.0927 137.64 32.1525 137.992 32.2016C138.837 32.3246 139.714 32.3879 140.63 32.3879C141.221 32.3879 141.852 32.3633 142.524 32.3071C143.19 32.2508 143.855 32.177 144.517 32.0787C145.183 31.9803 145.823 31.8573 146.447 31.7202C147.07 31.5797 147.63 31.4251 148.137 31.2529V26.9026C148.25 27.363 148.401 27.8022 148.598 28.2063C148.809 28.6385 149.066 29.0356 149.369 29.4046C149.697 29.8157 150.077 30.1847 150.517 30.5114C151.348 31.1264 152.355 31.5937 153.531 31.9065C154.714 32.2192 156.035 32.3809 157.496 32.3809C158.958 32.3809 160.278 32.2192 161.454 31.9065C162.627 31.5937 163.623 31.1264 164.444 30.5114C165.271 29.8895 165.905 29.1199 166.341 28.2028C166.785 27.2786 167.007 26.2209 167.007 25.0157C167.007 23.8104 166.785 22.7562 166.341 21.8356L166.334 21.8426ZM162.926 26.5899C162.76 27.1135 162.465 27.5808 162.039 27.992C161.613 28.4031 161.035 28.7439 160.292 29.0005C159.56 29.2605 158.627 29.387 157.486 29.387C156.729 29.387 156.056 29.3237 155.475 29.2078C154.894 29.0918 154.398 28.9232 153.975 28.7158C153.549 28.512 153.197 28.266 152.915 27.9884C152.626 27.7108 152.398 27.4086 152.232 27.0889C152.059 26.7621 151.943 26.4247 151.869 26.0734C151.802 25.722 151.764 25.3706 151.764 25.0227C151.764 24.6748 151.802 24.341 151.869 23.9896C151.943 23.6452 152.059 23.3079 152.232 22.9881C152.398 22.6613 152.626 22.3591 152.915 22.078C153.2 21.7934 153.549 21.5474 153.975 21.3401C154.394 21.1293 154.894 20.9641 155.475 20.8481C156.056 20.7322 156.725 20.6689 157.486 20.6689C158.627 20.6689 159.556 20.7989 160.292 21.0555C161.032 21.3155 161.613 21.6458 162.039 22.064C162.465 22.4751 162.76 22.9424 162.926 23.4625C163.091 23.9861 163.172 24.5026 163.172 25.0262C163.172 25.5498 163.091 26.0734 162.926 26.5899Z" fill="white"/>
<path d="M74.829 17.8613C76.1671 17.8613 77.4101 17.9737 78.558 18.2021C79.7059 18.4306 80.7622 18.7222 81.72 19.0806V22.4118C81.3432 22.201 80.9172 21.9972 80.4453 21.7969C79.9735 21.6001 79.4559 21.4244 78.8995 21.2733C78.3432 21.1222 77.7481 20.9992 77.1107 20.9079C76.4734 20.8165 75.8079 20.7673 75.1037 20.7673C74.2304 20.7673 73.4698 20.8306 72.8184 20.9571C72.1705 21.0836 71.6142 21.2522 71.1494 21.4631C70.6846 21.6739 70.3043 21.9199 70.0085 22.201C69.7092 22.4821 69.4768 22.7808 69.3042 23.0971C69.1317 23.4133 69.012 23.7366 68.9451 24.0669C68.8782 24.3972 68.8465 24.717 68.8465 25.0297C68.8465 25.3003 68.8747 25.5955 68.931 25.9117C68.9873 26.228 69.093 26.5477 69.2479 26.864C69.4028 27.1802 69.6211 27.4859 69.8993 27.7741C70.1775 28.0657 70.5402 28.3223 70.9874 28.5472C71.4346 28.772 71.9733 28.9513 72.6001 29.0883C73.2304 29.2253 73.9769 29.2921 74.8431 29.2921C75.2797 29.2921 75.66 29.278 75.984 29.2535C76.3079 29.2289 76.6037 29.1902 76.8713 29.1445C77.1389 29.0988 77.3924 29.0426 77.6248 28.9759C77.8608 28.9091 78.1037 28.8388 78.3537 28.7685V27.124H74.2234V24.1407H82.0404V31.0983C81.551 31.2634 81.0017 31.4145 80.396 31.548C79.7904 31.6816 79.1636 31.7975 78.5192 31.8959C77.8748 31.9908 77.2269 32.0646 76.579 32.1173C75.9311 32.17 75.3185 32.1981 74.741 32.1981C73.8466 32.1981 72.9909 32.1384 72.167 32.0189C71.3465 31.8994 70.5789 31.7167 69.8676 31.4672C69.1564 31.2177 68.5085 30.905 67.9204 30.522C67.3359 30.139 66.8359 29.6822 66.4204 29.1551C66.0049 28.628 65.6844 28.0201 65.4556 27.3348C65.2267 26.6496 65.114 25.8836 65.114 25.0297C65.114 24.1758 65.2337 23.4168 65.4732 22.7316C65.7126 22.0429 66.0436 21.435 66.4697 20.9079C66.8957 20.3808 67.4098 19.924 68.0084 19.541C68.607 19.1579 69.2655 18.8417 69.9838 18.5957C70.7022 18.3462 71.4698 18.1635 72.2867 18.044C73.1036 17.9245 73.9452 17.8648 74.8149 17.8648L74.829 17.8613Z" fill="white"/>
<path d="M100.013 25.0297C100.013 26.1998 99.7979 27.2329 99.3683 28.1255C98.9387 29.0215 98.3225 29.77 97.5196 30.3709C96.7168 30.9718 95.745 31.4251 94.6041 31.7343C93.4632 32.04 92.178 32.1946 90.7554 32.1946C89.3328 32.1946 88.0441 32.04 86.8962 31.7343C85.7483 31.4286 84.7694 30.9718 83.963 30.3709C83.1567 29.77 82.5334 29.0215 82.0968 28.1255C81.6601 27.2294 81.4418 26.1963 81.4418 25.0297C81.4418 23.8631 81.6601 22.8265 82.0968 21.9339C82.5334 21.0379 83.1567 20.2894 83.963 19.6885C84.7694 19.0877 85.7483 18.6344 86.8962 18.3251C88.0441 18.0194 89.3293 17.8648 90.7554 17.8648C92.1815 17.8648 93.4632 18.0194 94.6041 18.3251C95.745 18.6308 96.7168 19.0877 97.5196 19.6885C98.319 20.2894 98.9352 21.0379 99.3683 21.9339C99.7979 22.83 100.013 23.8631 100.013 25.0297ZM96.2872 25.0297C96.2872 24.5202 96.2062 24.0142 96.0443 23.5082C95.8823 23.0022 95.5935 22.5489 95.1816 22.1448C94.7661 21.7407 94.2027 21.4139 93.4879 21.1644C92.7731 20.9149 91.8611 20.7884 90.7554 20.7884C90.0124 20.7884 89.361 20.8481 88.7976 20.9606C88.2342 21.0765 87.7483 21.2382 87.3363 21.442C86.9243 21.6458 86.5828 21.8847 86.3046 22.1588C86.0264 22.4329 85.8046 22.7281 85.6391 23.0408C85.4736 23.3536 85.3574 23.6804 85.287 24.0212C85.2166 24.3621 85.1814 24.6959 85.1814 25.0262C85.1814 25.3565 85.2166 25.7044 85.287 26.0487C85.3574 26.3931 85.4736 26.7199 85.6391 27.0362C85.8046 27.3489 86.0264 27.6441 86.3046 27.9146C86.5828 28.1852 86.9279 28.4206 87.3363 28.6245C87.7483 28.8247 88.2342 28.9829 88.7976 29.0988C89.361 29.2148 90.0124 29.271 90.7554 29.271C91.8611 29.271 92.7731 29.1445 93.4879 28.895C94.2027 28.6455 94.7661 28.3152 95.1816 27.9146C95.5935 27.5105 95.8823 27.0572 96.0443 26.5512C96.2062 26.0452 96.2872 25.5392 96.2872 25.0297Z" fill="white"/>
<path d="M113.038 31.8292V30.4904C112.569 30.7469 112.062 30.9753 111.523 31.1756C110.985 31.3724 110.421 31.541 109.84 31.6816C109.256 31.8186 108.657 31.9241 108.037 31.9943C107.418 32.0646 106.795 32.0998 106.164 32.0998C105.428 32.0998 104.721 32.0295 104.034 31.8924C103.347 31.7519 102.742 31.5305 102.21 31.2178C101.682 30.9085 101.256 30.5009 100.935 29.9984C100.615 29.4959 100.453 28.881 100.453 28.1536C100.453 27.2365 100.703 26.4704 101.206 25.859C101.71 25.2476 102.478 24.7486 103.509 24.3586C104.541 23.9685 105.847 23.6698 107.428 23.4555C109.006 23.2447 110.876 23.0795 113.034 22.96V22.6719C113.034 22.447 112.974 22.2256 112.854 22.0042C112.735 21.7829 112.52 21.5896 112.203 21.4209C111.89 21.2523 111.457 21.1152 110.911 21.0098C110.365 20.9044 109.668 20.8517 108.819 20.8517C108.15 20.8517 107.488 20.8868 106.837 20.9571C106.185 21.0274 105.555 21.1222 104.949 21.2382C104.344 21.3542 103.77 21.4947 103.228 21.6528C102.685 21.811 102.192 21.9761 101.749 22.1483V18.8768C102.213 18.7574 102.731 18.6414 103.309 18.529C103.886 18.4165 104.485 18.3181 105.108 18.2373C105.731 18.1565 106.358 18.0897 106.995 18.0405C107.633 17.9913 108.242 17.9667 108.823 17.9667C109.967 17.9667 111.023 18.0616 111.992 18.2478C112.96 18.4376 113.791 18.7293 114.488 19.1263C115.186 19.5234 115.735 20.0259 116.126 20.6338C116.52 21.2417 116.717 21.9656 116.717 22.8054V31.8362H113.034L113.038 31.8292ZM113.038 25.613C111.622 25.6658 110.418 25.7431 109.428 25.8414C108.439 25.9398 107.615 26.0558 106.96 26.1893C106.305 26.3229 105.791 26.4634 105.414 26.6145C105.041 26.7656 104.759 26.9202 104.576 27.0819C104.39 27.24 104.277 27.3981 104.235 27.5562C104.192 27.7144 104.171 27.862 104.171 27.992C104.171 28.1501 104.213 28.3047 104.301 28.4523C104.386 28.5999 104.537 28.7299 104.752 28.8423C104.967 28.9548 105.252 29.0426 105.611 29.1094C105.971 29.1762 106.418 29.2078 106.964 29.2078C107.566 29.2078 108.154 29.1621 108.731 29.0672C109.309 28.9759 109.854 28.8494 110.369 28.6842C110.886 28.5226 111.369 28.3293 111.823 28.1079C112.277 27.8866 112.682 27.6511 113.041 27.3981V25.6025L113.038 25.613Z" fill="white"/>
<path d="M90.9209 37.2407V43.1336H88.8821V37.2407H85.6813V35.6032H94.1252V37.2407H90.9174H90.9209Z" fill="white"/>
<path d="M99.9845 43.1335H97.9457V35.6031H103.051C103.601 35.6031 104.066 35.6593 104.449 35.7718C104.833 35.8842 105.143 36.0459 105.382 36.2532C105.622 36.4605 105.794 36.7135 105.904 37.0052C106.013 37.2968 106.066 37.6271 106.066 37.9891C106.066 38.3053 106.02 38.5829 105.932 38.8219C105.844 39.0608 105.72 39.2646 105.569 39.4333C105.418 39.602 105.242 39.746 105.041 39.862C104.84 39.978 104.629 40.0763 104.404 40.1537L106.875 43.13H104.492L102.206 40.3575H99.9809V43.13L99.9845 43.1335ZM104.009 37.982C104.009 37.8345 103.992 37.7115 103.953 37.6096C103.914 37.5077 103.847 37.4233 103.752 37.3601C103.657 37.2968 103.53 37.2512 103.372 37.2195C103.213 37.1914 103.013 37.1774 102.777 37.1774H99.988V38.7867H102.777C103.016 38.7867 103.213 38.7727 103.372 38.7446C103.53 38.7165 103.657 38.6673 103.752 38.604C103.847 38.5408 103.914 38.4564 103.953 38.3545C103.992 38.2526 104.009 38.1296 104.009 37.982Z" fill="white"/>
<path d="M116.872 41.7068H112.664L111.957 43.13H109.682L113.629 35.5996H115.904L119.851 43.13H117.576L116.869 41.7068H116.872ZM113.397 40.238H116.154L114.781 37.4655L113.397 40.238Z" fill="white"/>
<path d="M132.806 39.363C132.806 39.8444 132.753 40.2731 132.647 40.6491C132.541 41.0251 132.394 41.3484 132.2 41.626C132.006 41.9036 131.777 42.139 131.51 42.3323C131.242 42.5256 130.943 42.6802 130.612 42.7996C130.281 42.9156 129.929 42.9999 129.545 43.0562C129.165 43.1089 128.767 43.137 128.355 43.137H123.566V35.6066H128.344C128.756 35.6066 129.154 35.6347 129.534 35.6874C129.915 35.7402 130.27 35.8245 130.601 35.944C130.932 36.0599 131.235 36.2145 131.506 36.4078C131.777 36.6011 132.01 36.8365 132.2 37.1141C132.39 37.3917 132.541 37.7185 132.647 38.091C132.753 38.4635 132.806 38.8886 132.806 39.3665V39.363ZM130.753 39.363C130.753 39.0011 130.707 38.6883 130.612 38.4213C130.52 38.1542 130.369 37.9328 130.161 37.7607C129.953 37.5885 129.686 37.4585 129.351 37.3706C129.017 37.2863 128.612 37.2406 128.133 37.2406H125.601V41.4925H128.133C128.612 41.4925 129.02 41.4503 129.351 41.3624C129.686 41.2781 129.953 41.1446 130.161 40.9689C130.369 40.7932 130.517 40.5683 130.612 40.3012C130.707 40.0342 130.753 39.7214 130.753 39.3595V39.363Z" fill="white"/>
<path d="M137.137 43.1335V35.6031H144.774V37.209H139.228V38.4529H144.489V40.0588H139.228V41.5276H144.852V43.1335H137.137Z" fill="white"/>
</g>
<defs>
<clipPath id="clip0_1_56">
<rect width="167" height="55" fill="white"/>
</clipPath>
</defs>
</svg>
